<?xml version="1.0" encoding="utf-8"?>
<!-- Generator: Adobe Illustrator 16.0.0, SVG Export Plug-In . SVG Version: 6.00 Build 0)  -->
<!DOCTYPE svg PUBLIC "-//W3C//DTD SVG 1.1//EN" "http://www.w3.org/Graphics/SVG/1.1/DTD/svg11.dtd">
<svg version="1.1" id="Layer_1" xmlns="http://www.w3.org/2000/svg" xmlns:xlink="http://www.w3.org/1999/xlink" x="0px" y="0px"
	 width="1029.139px" height="310.03px" viewBox="0 0 1029.139 310.03" enable-background="new 0 0 1029.139 310.03"
	 xml:space="preserve">
<g>
	<g>
		<path fill="#212121" d="M371.103,190.48c-11.457-14.833-44.405-9.775-54.059,5.053c-6.337,9.733-6.405,26.359,2.527,34.857
			c3.169,3.018,8.98,1.623,10.102,7.578c2.58,13.664-20.613,5.136-29.303,2.532c-9.158-2.755-18.13-5.989-23.745-8.088
			c-38.731-14.475-76.264-28.473-112.661-46.479c-2.959-1.459-20.433-7.894-16.673-15.158c1.359-2.619,11.509-3.131,15.662-4.035
			c5.202-1.137,13.871-2.145,14.65-5.055c0.819-3.022-5.022-7.991-7.575-8.593c-4.262-0.997-11.402,0.509-15.158,0.509
			c-26.821,0-48.499-3.24-67.193-11.118c-7.062-2.978-17.345-6.213-19.192-12.123c-4.203-13.41,18.359-21.79,27.784-25.764
			c2.8-1.186,10.465-5.286,13.133-4.55c3.803,1.051,5.652,10.65,7.074,13.643c2.28,4.791,4.642,9.553,7.582,13.133
			c13.15,16.048,45.76,20.099,63.145,3.034c7.937-7.789,13.485-19.593,17.179-30.822c1.055-3.193,2.548-11.11,4.044-12.121
			c3.758-2.536,18.088,0.28,23.241,1.011c8.025,1.144,15.263,3.197,20.716,4.548c15.23,3.78,24.893,5.337,34.349,16.673
			c-15.445,14.118-30.443,18.664-50.013,24.25c-6.729,1.918-17.518,4.921-28.801,8.082c-4.88,1.366-26.514,5.952-27.784,9.601
			c-1.562,4.479,3.077,11.497,7.578,12.625c7.187,1.817,18.981-2.248,26.776-4.038c9.372-2.157,18.058-4.696,24.755-6.571
			c16.813-4.699,32.548-8.91,45.473-16.667c8.849-5.319,18.523-17.429,27.784-18.693c11.099-1.52,19.257,5.506,31.32,5.054
			c6.483-0.248,15.376-3.349,16.168-10.613c0.846-7.8-7.045-15.303-12.125-18.185c-11.669-6.63-30.756-7.77-44.962-11.62
			c-31.933-8.658-61.636-13.771-98.52-15.666c-17.393-0.887-37.952-2.014-54.563-0.502c-28.206,2.556-49.736,13.456-70.727,23.238
			c-7.02,3.271-15.945,8.579-23.745,8.087c-6.958-0.445-17.477-9.384-17.177-16.673c0.227-5.522,6.733-9.852,11.109-13.139
			c24.649-18.504,52.857-28.285,91.953-30.816c14.821-0.962,30.622,1.078,44.965,3.033c51.482,7.016,97.924,16.438,146.001,25.768
			c4.737,0.913,17.793,5.093,20.72,3.027c2.515-1.782,1.95-9.715,1.006-13.134c-3.887-14.118-14.747-12.709-30.821-15.16
			c-25.633-3.913-52.596-8.321-76.285-12.125c-33.771-5.418-71.219-11.842-108.619-10.102c-29.663,1.377-54.91,6.043-76.791,18.188
			c-10.048,5.574-20.16,11.866-28.797,18.69c-7.635,6.035-18.333,14.901-23.744,23.75c-2.103,3.433-7.826,16.302-4.042,20.709
			c4.358,5.075,17.692-2.682,22.228-1.515c2.758,0.705,7.239,9.122,11.118,11.623c6.503,4.194,14.786,3.732,15.152,12.625
			c0.657,15.926-23.836,6.344-34.353,10.61c-6.59,2.678-13.631,18.71-2.527,22.737c6.8,2.462,17.483-4.118,27.787-5.056
			c15.653-1.417,26.806,1.957,39.407,6.566c6.491,2.377,21.226,7.984,22.735,12.633c1.229,3.794,0.072,10.271,0.506,15.663
			c0.378,4.749,0.928,9.956,1.513,14.647c0.879,7.043,1.681,23.358,7.579,25.265c4.314,1.392,10.223-1.645,11.616-4.044
			c3.402-5.837-1.044-15.146-2.522-20.209c-1.969-6.73-4.837-12.176-4.04-20.714c0.505-5.421,4.865-13.11,8.587-12.126
			c4.37,1.159,6.172,13.872,6.57,19.706c1.25,18.33-3.696,32.848-1.015,51.032c0.932,6.268,5.484,16.371,12.635,12.117
			c5.118-3.046,2.042-17.622,1.515-24.248c-0.529-6.625-2.936-22.917,0.502-25.26c1.792-1.219,5.494,0.038,11.114,3.033
			c10.949,5.82,20.121,10.117,30.313,15.157c28.999,14.338,55.205,23.177,86.899,34.352c15.407,5.43,32.466,11.325,51.529,9.598
			c15.317-1.389,30.174-9.305,37.89-18.69C376.86,233.736,381.273,203.649,371.103,190.48z M126.582,94.996
			c2.61-6.252,13.325-10.788,24.248-12.121c16.077-1.978,39.856,4.498,39.408,19.196c-0.297,9.601-14.629,21.922-23.241,25.26
			c-13.318,5.167-26.132-0.298-33.343-9.095C129.046,112.63,123.497,102.378,126.582,94.996z M354.433,214.226
			c-0.913,5.687-8.649,11.719-8.593,15.659c0.017,1.136,1.645,2.551,1.517,3.538c-0.321,2.471-3.768,6.939-6.569,7.078
			c-2.33,0.104-4.448-1.207-4.546-3.033c-0.216-3.972,7.307-3.583,8.586-6.066c3.493-6.75-2.845-11.176-10.608-11.613
			c-2.017-6.108-0.524-11.515,2.021-13.646C343.119,200.391,356.014,204.322,354.433,214.226z"/>
		<g>
			<path fill="#212121" d="M431.715,195.483h-11.792V86.946h11.792V195.483z"/>
			<path fill="#212121" d="M453.899,82.338l82.555,88.673V86.946h11.793v113.433L465.69,111.85v83.634h-11.792V82.338z"/>
			<path fill="#212121" d="M582.079,98.17v32.246h35.241v11.229h-35.241v53.839h-11.787V86.946h48.151V98.17H582.079z"/>
			<path fill="#212121" d="M742.411,141.356c0,31.239-24.99,55.993-55.175,55.993c-30.182,0-55.175-24.754-55.175-55.993
				c0-31.092,24.993-56.284,55.175-56.284C717.421,85.072,742.411,110.265,742.411,141.356z M643.854,141.214
				c0,24.476,19.376,44.91,43.382,44.91c24.009,0,43.383-20.435,43.383-44.91c0-24.614-19.093-44.912-43.383-44.912
				C662.948,96.302,643.854,116.6,643.854,141.214z"/>
			<path fill="#212121" d="M804.888,108.106c-4.213-7.486-9.265-11.805-18.251-11.805c-9.404,0-17.547,6.912-17.547,16.845
				c0,9.351,9.403,13.673,16.565,16.98l7.021,3.168c13.757,6.192,25.409,13.242,25.409,30.519c0,18.998-14.882,33.536-33.273,33.536
				c-16.989,0-29.622-11.226-32.992-28.067l11.514-3.306c1.543,11.08,9.829,20.147,21.196,20.147
				c11.377,0,21.763-8.924,21.763-21.158c0-12.671-9.687-16.985-19.515-21.595l-6.456-2.879
				c-12.353-5.76-23.021-12.232-23.021-27.781c0-16.846,13.898-27.639,29.62-27.639c11.793,0,21.76,6.191,27.376,16.842
				L804.888,108.106z"/>
			<path fill="#212121" d="M938.831,141.356c0,31.239-24.995,55.993-55.182,55.993c-30.182,0-55.172-24.754-55.172-55.993
				c0-31.092,24.99-56.284,55.172-56.284C913.836,85.072,938.831,110.265,938.831,141.356z M840.271,141.214
				c0,24.476,19.372,44.91,43.379,44.91c24.008,0,43.381-20.435,43.381-44.91c0-24.614-19.093-44.912-43.381-44.912
				C859.362,96.302,840.271,116.6,840.271,141.214z"/>
			<path fill="#212121" d="M966.341,184.255h29.209v11.229h-40.998V86.946h11.789V184.255z"/>
		</g>
		<g>
			<path fill="#212121" d="M997.076,93.089c0-6.5,5.18-11.681,11.738-11.681c6.557,0,11.736,5.181,11.736,11.681
				c0,6.499-5.18,11.681-11.736,11.681C1002.256,104.77,997.076,99.588,997.076,93.089z M1018.755,93.089
				c0-5.509-4.578-9.881-9.94-9.881c-5.364,0-9.942,4.372-9.942,9.881c0,5.513,4.578,9.88,9.942,9.88
				C1014.177,102.969,1018.755,98.602,1018.755,93.089z M1014.38,99.408h-2.152l-3.839-5.902h-2.153v5.902h-1.794V86.623h5.571
				c2.301,0,4.549,0.624,4.549,3.38c0,2.519-1.771,3.448-4.044,3.503L1014.38,99.408z M1008.389,91.707
				c1.594,0,4.376,0.308,4.376-1.731c0-1.318-1.738-1.558-3.113-1.558h-3.416v3.289H1008.389z"/>
		</g>
	</g>
	<g>
		<path fill="#212121" d="M639.476,255.566c0.325,3.565,3.026,4.863,6.323,4.863c2.32,0,6.37-0.488,6.207-3.673
			c-0.162-3.241-4.644-3.619-9.125-4.645c-4.535-0.972-8.964-2.592-8.964-8.263c0-6.103,6.585-7.994,11.665-7.994
			c5.72,0,10.905,2.38,11.661,8.588h-6.43c-0.533-2.916-2.966-3.725-5.664-3.725c-1.783,0-5.08,0.431-5.08,2.862
			c0,3.024,4.539,3.454,9.072,4.48c4.482,1.026,9.017,2.646,9.017,8.154c0,6.642-6.693,9.07-12.469,9.07
			c-7.021,0-12.259-3.131-12.367-9.72H639.476z"/>
		<path fill="#212121" d="M667.668,252.166c0,4.373,2.377,8.264,7.509,8.264c3.562,0,5.722-1.567,6.805-4.646h5.828
			c-1.348,6.101-6.533,9.502-12.633,9.502c-8.752,0-13.666-6.101-13.666-14.687c0-7.936,5.183-14.744,13.503-14.744
			c8.803,0,14.197,7.94,13.176,16.311H667.668z M682.032,248.115c-0.216-3.887-2.861-7.396-7.019-7.396
			c-4.272,0-7.183,3.238-7.346,7.396H682.032z"/>
		<path fill="#212121" d="M697.692,252.166c0,4.373,2.378,8.264,7.508,8.264c3.561,0,5.726-1.567,6.805-4.646h5.833
			c-1.353,6.101-6.538,9.502-12.638,9.502c-8.748,0-13.661-6.101-13.661-14.687c0-7.936,5.185-14.744,13.5-14.744
			c8.801,0,14.2,7.94,13.176,16.311H697.692z M712.056,248.115c-0.215-3.887-2.86-7.396-7.017-7.396
			c-4.268,0-7.184,3.238-7.347,7.396H712.056z"/>
		<path fill="#212121" d="M723.076,225.975h6.156v5.832h-6.156V225.975z M723.076,236.612h6.156v27.919h-6.156V236.612z"/>
		<path fill="#212121" d="M735.927,236.612h5.836v4.106l0.109,0.108c1.834-3.08,5.023-4.972,8.69-4.972
			c6.048,0,9.883,3.242,9.883,9.507v19.169h-6.159V246.98c-0.108-4.372-1.835-6.262-5.451-6.262c-4.102,0-6.747,3.238-6.747,7.343
			v16.47h-6.161V236.612z"/>
		<path fill="#212121" d="M792.736,263.074c0,8.368-4.913,12.526-13.713,12.526c-5.614,0-11.936-2.161-12.472-8.693h6.155
			c0.756,3.512,3.562,4.104,6.693,4.104c4.971,0,7.184-2.536,7.184-7.127v-4.268h-0.108c-1.728,3.08-4.916,4.915-8.375,4.915
			c-8.855,0-12.523-6.694-12.523-14.688c0-7.505,4.698-13.988,12.633-13.988c3.514,0,6.702,1.461,8.266,4.592h0.108v-3.835h6.152
			V263.074z M786.584,249.953c0-4.809-2.159-9.234-7.51-9.234c-5.454,0-7.343,5.075-7.343,9.72c0,4.588,2.213,9.233,7.343,9.233
			C784.531,259.672,786.584,254.703,786.584,249.953z"/>
		<path fill="#212121" d="M814.122,225.975h6.162v14.256h0.105c1.676-2.699,5.182-4.375,8.315-4.375
			c8.798,0,13.064,6.696,13.064,14.853c0,7.504-3.777,14.578-12.036,14.578c-3.783,0-7.833-0.915-9.668-4.589h-0.108v3.834h-5.835
			V225.975z M827.894,240.719c-5.18,0-7.828,3.941-7.828,9.881c0,5.616,2.859,9.83,7.828,9.83c5.617,0,7.725-4.97,7.725-9.83
			C835.618,245.524,832.969,240.719,827.894,240.719z"/>
		<path fill="#212121" d="M851.767,252.166c0,4.373,2.377,8.264,7.51,8.264c3.56,0,5.72-1.567,6.803-4.646h5.83
			c-1.348,6.101-6.535,9.502-12.633,9.502c-8.754,0-13.667-6.101-13.667-14.687c0-7.936,5.184-14.744,13.503-14.744
			c8.8,0,14.196,7.94,13.174,16.311H851.767z M866.129,248.115c-0.214-3.887-2.86-7.396-7.017-7.396
			c-4.271,0-7.186,3.238-7.346,7.396H866.129z"/>
		<path fill="#212121" d="M873.909,236.612h6.75l7.289,20.843h0.109l7.068-20.843h6.43L890.7,266.043
			c-1.997,5.021-3.451,9.558-9.88,9.558c-1.459,0-2.861-0.108-4.264-0.321v-5.186c0.97,0.161,1.942,0.376,2.912,0.376
			c2.864,0,3.565-1.511,4.317-3.887l0.707-2.158L873.909,236.612z"/>
		<path fill="#212121" d="M903.717,250.543c0-8.528,5.132-14.688,14.095-14.688c8.966,0,14.094,6.159,14.094,14.688
			c0,8.589-5.128,14.743-14.094,14.743C908.849,265.286,903.717,259.132,903.717,250.543z M925.747,250.543
			c0-4.804-2.432-9.824-7.936-9.824c-5.512,0-7.94,5.021-7.94,9.824c0,4.863,2.429,9.887,7.94,9.887
			C923.315,260.43,925.747,255.406,925.747,250.543z"/>
		<path fill="#212121" d="M937.036,236.612h5.83v4.106l0.108,0.108c1.836-3.08,5.024-4.972,8.692-4.972
			c6.051,0,9.885,3.242,9.885,9.507v19.169h-6.156V246.98c-0.105-4.372-1.835-6.262-5.455-6.262c-4.102,0-6.751,3.238-6.751,7.343
			v16.47h-6.153V236.612z"/>
		<path fill="#212121" d="M994.329,264.531h-5.83v-3.779h-0.108c-1.618,3.188-5.129,4.534-8.638,4.534
			c-8.801,0-13.071-6.534-13.071-14.902c0-10.098,5.998-14.528,12.099-14.528c3.512,0,7.398,1.299,9.285,4.375h0.11v-14.256h6.153
			V264.531z M980.56,260.43c5.51,0,7.831-5.023,7.831-9.887c0-6.154-2.97-9.824-7.725-9.824c-5.772,0-7.824,5.131-7.824,10.151
			C972.842,255.676,975.218,260.43,980.56,260.43z"/>
	</g>
</g>
</svg>
