<?xml version="1.0" encoding="utf-8"?>
<!-- Generator: Adobe Illustrator 16.0.0, SVG Export Plug-In . SVG Version: 6.00 Build 0)  -->
<!DOCTYPE svg PUBLIC "-//W3C//DTD SVG 1.1//EN" "http://www.w3.org/Graphics/SVG/1.1/DTD/svg11.dtd">
<svg version="1.1" id="Layer_1" xmlns="http://www.w3.org/2000/svg" xmlns:xlink="http://www.w3.org/1999/xlink" x="0px" y="0px"
	 width="400px" height="100px" viewBox="0 0 400 100" enable-background="new 0 0 400 100" xml:space="preserve">
<g>
	<g>
		<g>
			<g>
				<path fill="#226270" d="M79.215,12.491c0-0.244-0.008-0.487-0.012-0.731c-0.316,0.164-0.119,0.541-0.226,0.813
					c-0.205,0.521-0.315,1.105-0.404,1.679c-0.094,0.609-0.317,1.171-0.406,1.785c-0.091,0.633-0.274,1.246-0.419,1.868
					c-0.088,0.378-0.184,0.755-0.271,1.132c-0.128,0.549-0.289,1.09-0.369,1.647c-0.087,0.613-0.317,1.171-0.397,1.789
					c-0.083,0.65-0.332,1.259-0.436,1.912c-0.057,0.37-0.169,0.728-0.251,1.091c-0.133,0.594-0.261,1.191-0.395,1.785
					c-0.088,0.395-0.188,0.785-0.276,1.181c-0.182,0.809-0.389,1.61-0.525,2.43c-0.102,0.608-0.316,1.173-0.402,1.787
					c-0.091,0.666-0.279,1.312-0.425,1.964c-0.131,0.597-0.258,1.192-0.397,1.784c-0.131,0.561-0.326,1.107-0.402,1.679
					c-0.081,0.617-0.278,1.191-0.411,1.783c-0.128,0.57-0.242,1.16-0.411,1.725c-0.173,0.58-0.259,1.193-0.384,1.791
					c-0.146,0.701-0.26,1.421-0.456,2.1c-0.162,0.566-0.301,1.33-0.542,1.863c0.04-0.021,0.092-0.035,0.138-0.054l0.005-0.024
					c0.375-0.192,0.893-0.204,1.27-0.318c0.633-0.188,1.27-0.375,1.899-0.578c0.266-0.086,0.54-0.136,0.805-0.229
					c0.539-0.186,1.082-0.356,1.625-0.521c0.355-0.109,0.708-0.244,1.061-0.322c0.482-0.105,0.924-0.359,1.402-0.463
					c0.004-0.193,0.012-0.39,0.012-0.586C79.215,33.665,79.215,23.077,79.215,12.491z"/>
				<path fill="#1B8EA0" d="M76.74,45.623c-0.543,0.165-1.086,0.336-1.625,0.521c-0.265,0.093-0.539,0.143-0.805,0.229
					c-0.629,0.203-1.266,0.391-1.899,0.578c-0.377,0.114-0.895,0.126-1.27,0.318l-0.005,0.024l-0.701,3.149
					c-0.119,0.635-0.24,1.278-0.393,1.896c-0.219,0.879-0.37,1.782-0.61,2.651c-0.16,0.575-0.252,1.167-0.379,1.749
					c-0.181,0.838-0.395,1.662-0.59,2.491c-0.146,0.624-0.312,1.245-0.421,1.878c-0.101,0.577-0.288,1.125-0.387,1.699
					c-0.11,0.639-0.224,1.285-0.39,1.895c-0.302,1.101-0.505,2.228-0.742,3.345c-0.178,0.839-0.366,1.681-0.549,2.515
					c-0.2,0.918-0.351,1.854-0.605,2.755c-0.188,0.676-0.332,1.382-0.977,1.671c-0.336,0.352-0.702,0.195-1.066,0.093
					c-0.195,0.005-0.361-0.12-0.541-0.18c-1.905-0.607-3.811-1.212-5.716-1.823c-1.362-0.436-2.719-0.888-4.081-1.315
					c-1.725-0.542-3.455-1.069-5.184-1.601c-1.051-0.323-2.118-0.593-3.157-0.973c-0.971-0.357-2.001-0.486-2.917-1.062
					c-0.007,0.188-0.145,0.271-0.236,0.38c-4.602,5.53-9.208,11.056-13.802,16.597c-0.443,0.535-0.936,0.703-1.529,0.645
					c-0.173-0.017-0.253-0.166-0.377-0.254c-0.499-0.344-0.777-0.948-1.17-1.418c-2.12-2.534-4.233-5.078-6.351-7.617
					c-0.371-0.444-0.621-0.444-0.992-0.002c-0.48,0.571-0.925,1.193-1.447,1.706c-0.822,0.811-1.603,1.682-2.53,2.338
					c-0.753,0.534-1.452,1.179-2.178,1.769c-0.802,0.653-1.632,1.258-2.4,1.963c-0.518,0.479-1.045,0.941-1.558,1.428
					c-0.542,0.513-1.132,0.955-1.665,1.482c-0.435,0.429-0.925,0.758-1.357,1.181c-0.581,0.567-1.232,1.001-1.838,1.519
					c-0.367,0.312-0.767,0.569-1.137,0.878c-0.114,0.096-0.22,0.106-0.339,0.117c-0.005,0.324-0.001,0.649-0.018,0.976
					c-0.052,1.039-0.026,2.093,0.382,3.018c0.932,2.119,2.328,3.453,4.426,3.453c22.937-0.004,45.873-0.005,68.809-0.005
					c0.43,0,0.844-0.042,1.266-0.2c2.117-0.791,3.522-3.064,3.523-5.689c0.004-15.686,0.004-31.375,0.004-47.06
					c0-0.164-0.007-0.326-0.012-0.49c-0.478,0.104-0.92,0.357-1.402,0.463C77.448,45.379,77.095,45.514,76.74,45.623z"/>
				<path fill="#226270" d="M2.299,89.841c0.606-0.518,1.258-0.951,1.838-1.519c0.432-0.423,0.922-0.752,1.357-1.181
					c0.533-0.527,1.123-0.97,1.665-1.482c0.513-0.486,1.04-0.949,1.558-1.428c0.769-0.705,1.599-1.31,2.4-1.963
					c0.726-0.59,1.424-1.234,2.178-1.769c0.927-0.656,1.708-1.527,2.53-2.338c0.521-0.513,0.966-1.135,1.447-1.706
					c0.371-0.442,0.621-0.442,0.992,0.002c2.117,2.539,4.231,5.083,6.351,7.617c0.394,0.47,0.672,1.074,1.17,1.418
					c0.124,0.088,0.205,0.237,0.377,0.254c0.594,0.059,1.086-0.109,1.529-0.645c4.593-5.541,9.2-11.066,13.802-16.597
					c0.091-0.109,0.229-0.191,0.236-0.38c-0.027-0.245-0.189-0.188-0.315-0.194c-0.323-0.014-0.627-0.163-0.923-0.269
					c-0.542-0.195-1.089-0.357-1.633-0.535c-0.281-0.096-0.579-0.121-0.845-0.251c-0.674-0.333-1.391-0.479-2.089-0.688
					c-0.498-0.15-0.973-0.386-1.488-0.484c-0.542-0.104-1.049-0.395-1.593-0.521c-0.308-0.07-0.601-0.224-0.909-0.299
					c-0.467-0.115-0.907-0.348-1.369-0.457c-0.545-0.129-1.1-0.264-1.613-0.471c-0.913-0.367-1.863-0.547-2.774-0.912
					c-0.487-0.197-0.991-0.324-1.495-0.452c-0.55-0.142-1.084-0.374-1.627-0.558c-0.301-0.102-0.614-0.201-0.914-0.275
					c-0.507-0.125-0.974-0.404-1.488-0.489c-0.299-0.051-0.599-0.136-0.885-0.253c-0.459-0.189-0.93-0.375-1.395-0.492
					c-0.762-0.196-1.52-0.425-2.264-0.668c-1.015-0.332-2.036-0.635-3.05-0.962c-0.276-0.089-0.562-0.149-0.839-0.257
					c-0.688-0.266-1.389-0.484-2.093-0.682c-0.526-0.146-1.062-0.277-1.573-0.465c-0.665-0.243-1.345-0.432-1.999-0.719
					c-0.461-0.201-0.951-0.276-1.415-0.441c-0.592-0.213-1.174-0.444-1.792-0.559c-0.323-0.061-0.665-0.105-0.972-0.221
					c-0.511-0.191-1.046-0.16-1.552-0.345c-0.007,0.147-0.018,0.295-0.018,0.438c0,11.584,0,23.168,0,34.751
					c0,0.146,0.009,0.292,0.014,0.439c0.12-0.011,0.226-0.021,0.339-0.117C1.532,90.41,1.932,90.153,2.299,89.841z"/>
			</g>
		</g>
	</g>
	<path fill-rule="evenodd" clip-rule="evenodd" fill="#222D37" d="M71.222,54.97"/>
	<path fill-rule="evenodd" clip-rule="evenodd" fill="#222D37" d="M70.435,73.374c-0.119,0.635-0.24,1.279-0.393,1.896
		c-0.219,0.878-0.37,1.782-0.61,2.651c-0.16,0.576-0.252,1.166-0.379,1.75c-0.181,0.836-0.395,1.66-0.59,2.49
		c-0.146,0.625-0.312,1.246-0.421,1.879c-0.101,0.577-0.288,1.125-0.387,1.699c-0.11,0.639-0.224,1.285-0.39,1.893
		c-0.302,1.102-0.505,2.229-0.742,3.346c-0.178,0.84-0.366,1.68-0.549,2.516c-0.2,0.918-0.351,1.854-0.605,2.755
		c-0.188,0.675-0.441,1.573-1.086,1.862c-0.354,0.034-0.008-0.178-0.354,0.029c-0.195,0.005-0.962-0.25-1.143-0.309
		c-1.905-0.607-3.811-1.213-5.716-1.822c-1.362-0.436-2.719-0.889-4.081-1.316c-1.725-0.541-3.455-1.07-5.184-1.6
		c-1.051-0.324-2.118-0.594-3.157-0.975c-0.971-0.355-2.001-0.484-2.917-1.061c-0.027-0.246-0.189-0.189-0.315-0.194
		c-0.323-0.015-0.627-0.163-0.923-0.269c-0.542-0.195-1.089-0.357-1.633-0.535c-0.281-0.096-0.579-0.121-0.845-0.252
		c-0.674-0.334-1.391-0.479-2.089-0.688c-0.498-0.151-0.973-0.386-1.488-0.483c-0.542-0.105-1.049-0.395-1.593-0.523
		c-0.308-0.069-0.601-0.223-0.909-0.297c-0.467-0.116-0.907-0.35-1.369-0.459c-0.545-0.127-1.1-0.262-1.613-0.47
		c-0.913-0.367-1.863-0.547-2.774-0.913c-0.487-0.195-0.991-0.322-1.495-0.451c-0.55-0.142-1.084-0.375-1.627-0.558
		c-0.301-0.101-0.614-0.201-0.914-0.275c-0.507-0.124-0.974-0.404-1.488-0.489c-0.299-0.051-0.599-0.137-0.885-0.254
		c-0.459-0.188-0.93-0.373-1.395-0.49c-0.762-0.197-1.52-0.426-2.264-0.67c-1.015-0.332-2.036-0.633-3.05-0.961
		c-0.276-0.088-0.562-0.148-0.839-0.256c-0.688-0.267-1.389-0.484-2.093-0.682c-0.526-0.147-1.062-0.278-1.573-0.465
		c-0.665-0.244-1.345-0.432-1.999-0.72c-0.461-0.2-0.951-0.276-1.415-0.442C4.55,79.05,3.968,78.817,3.35,78.704
		c-0.323-0.061-0.665-0.105-0.972-0.222c-0.511-0.191-1.046-0.159-1.552-0.344c-0.007-0.196-0.018-0.39-0.018-0.584
		c0-23.253-0.004-46.504,0.003-69.756C0.813,5.335,1.854,3.643,3.66,2.573C4.322,2.18,5.027,2.025,5.762,2.025
		c22.827,0.002,45.653-0.005,68.481,0.012c2.064,0.002,3.595,1.156,4.496,3.434c0.278,0.703,0.478,1.428,0.478,2.219
		c-0.001,8.885-0.001,17.772-0.001,26.659c0,0.113-0.008,0.228-0.012,0.343c-0.316,0.162-0.119,0.541-0.226,0.812
		c-0.205,0.521-0.315,1.105-0.404,1.678c-0.094,0.611-0.317,1.172-0.406,1.785c-0.091,0.633-0.274,1.246-0.419,1.869
		c-0.088,0.379-0.184,0.756-0.271,1.132c-0.128,0.548-0.289,1.089-0.369,1.647c-0.087,0.613-0.317,1.17-0.397,1.79
		c-0.083,0.649-0.332,1.257-0.436,1.913c-0.057,0.367-0.169,0.725-0.251,1.09c-0.133,0.594-0.261,1.191-0.395,1.784
		c-0.088,0.395-0.188,0.785-0.276,1.182c-0.182,0.807-0.389,1.61-0.525,2.43c-0.102,0.607-0.316,1.17-0.402,1.787
		c-0.091,0.665-0.279,1.31-0.425,1.963c-0.131,0.596-0.258,1.191-0.397,1.784c-0.131,0.56-0.326,1.108-0.402,1.679
		c-0.081,0.617-0.278,1.191-0.411,1.783c-0.128,0.57-0.242,1.16-0.411,1.726c-0.173,0.578-0.259,1.192-0.384,1.79
		c-0.146,0.703-0.26,1.42-0.456,2.1"/>
	<text transform="matrix(1 0 0 1 9.6616 69.748)" fill="#FFFFFF" font-family="'GothamMedium'" font-size="60.0074">iD</text>
</g>
<g>
	<path d="M98.778,4.868h4.186v56.345h-4.186V4.868z"/>
	<path d="M114.071,20.162h3.944v7.646c1.395-2.414,3.272-4.453,5.634-6.117c2.361-1.663,5.419-2.496,9.176-2.496
		c2.576,0,4.882,0.417,6.922,1.248c2.039,0.833,3.77,2,5.192,3.502c1.421,1.502,2.495,3.287,3.22,5.353
		c0.725,2.066,1.087,4.334,1.087,6.802v25.113h-3.944V36.824c0-4.238-1.127-7.633-3.381-10.183
		c-2.254-2.548-5.474-3.823-9.659-3.823c-2.04,0-3.917,0.361-5.634,1.086c-1.718,0.725-3.22,1.73-4.508,3.02
		c-1.288,1.287-2.294,2.83-3.019,4.628c-0.724,1.798-1.086,3.771-1.086,5.916v23.745h-3.944V20.162z"/>
	<path d="M160.515,23.784h-5.957v-3.622h5.957v-4.025c0-4.721,1.207-8.291,3.622-10.705c2.146-2.146,5.017-3.22,8.613-3.22
		c1.234,0,2.334,0.081,3.3,0.241c0.966,0.161,1.904,0.402,2.817,0.725v3.703c-1.181-0.375-2.227-0.645-3.139-0.805
		c-0.913-0.162-1.905-0.242-2.978-0.242c-5.528,0-8.291,3.461-8.291,10.384v3.944h14.328v3.622h-14.328v37.429h-3.944V23.784z"/>
	<path d="M200.117,62.18c-3.059,0-5.863-0.578-8.412-1.73c-2.549-1.154-4.763-2.697-6.641-4.629
		c-1.879-1.932-3.34-4.186-4.387-6.762s-1.57-5.312-1.57-8.21v-0.161c0-2.897,0.523-5.635,1.57-8.211
		c1.046-2.575,2.521-4.855,4.427-6.842c1.904-1.984,4.145-3.554,6.721-4.709c2.576-1.152,5.393-1.73,8.452-1.73
		c3.06,0,5.862,0.578,8.411,1.73c2.549,1.155,4.762,2.697,6.641,4.629s3.342,4.186,4.387,6.762c1.047,2.576,1.57,5.312,1.57,8.211
		v0.16c0,2.898-0.523,5.635-1.57,8.211c-1.045,2.575-2.521,4.857-4.426,6.842c-1.906,1.985-4.146,3.555-6.723,4.709
		C205.994,61.602,203.176,62.18,200.117,62.18z M200.278,58.396c2.427,0,4.677-0.467,6.753-1.402s3.855-2.189,5.338-3.766
		c1.484-1.576,2.643-3.433,3.479-5.569c0.834-2.137,1.254-4.407,1.254-6.812v-0.16c0-2.457-0.432-4.768-1.295-6.932
		c-0.861-2.162-2.062-4.045-3.6-5.648c-1.537-1.602-3.342-2.858-5.418-3.766c-2.076-0.908-4.299-1.363-6.672-1.363
		c-2.427,0-4.679,0.469-6.754,1.402c-2.076,0.937-3.856,2.191-5.339,3.768s-2.643,3.432-3.478,5.568s-1.252,4.408-1.252,6.811v0.16
		c0,2.457,0.431,4.768,1.294,6.932c0.863,2.163,2.062,4.047,3.598,5.649c1.537,1.603,3.343,2.857,5.419,3.766
		C195.681,57.941,197.906,58.396,200.278,58.396z"/>
	<path d="M229.014,4.868h18.755c4.399,0,8.438,0.712,12.114,2.133c3.675,1.423,6.842,3.395,9.498,5.917s4.709,5.486,6.158,8.895
		s2.173,7.097,2.173,11.067v0.161c0,3.972-0.724,7.674-2.173,11.107c-1.449,3.436-3.502,6.414-6.158,8.936
		c-2.656,2.522-5.823,4.508-9.498,5.956c-3.676,1.448-7.715,2.173-12.114,2.173h-18.755V4.868z M247.769,57.43
		c3.917,0,7.458-0.633,10.625-1.897c3.166-1.265,5.849-2.987,8.05-5.168c2.199-2.181,3.903-4.737,5.111-7.672
		c1.207-2.935,1.811-6.097,1.811-9.491v-0.16c0-3.338-0.604-6.487-1.811-9.448c-1.208-2.96-2.912-5.545-5.111-7.754
		c-2.201-2.207-4.884-3.956-8.05-5.249c-3.167-1.292-6.708-1.938-10.625-1.938h-14.569V57.43H247.769z"/>
	<path d="M298.237,62.18c-1.932,0-3.837-0.27-5.715-0.805c-1.879-0.537-3.569-1.342-5.071-2.416
		c-1.503-1.072-2.724-2.414-3.662-4.023c-0.939-1.61-1.408-3.488-1.408-5.635v-0.162c0-2.145,0.442-4.051,1.328-5.715
		c0.885-1.662,2.105-3.059,3.662-4.186c1.556-1.127,3.434-1.984,5.635-2.575c2.199-0.59,4.641-0.886,7.324-0.886
		c2.898,0,5.394,0.161,7.486,0.482c2.093,0.322,4.132,0.753,6.117,1.289v-1.762c0-4.161-1.194-7.283-3.582-9.364
		s-5.702-3.122-9.94-3.122c-2.523,0-4.83,0.31-6.923,0.926c-2.093,0.617-4.078,1.408-5.956,2.375l-1.449-3.465
		c2.254-1.098,4.534-1.974,6.842-2.631c2.307-0.658,4.883-0.988,7.728-0.988c5.635,0,9.954,1.504,12.96,4.508
		c2.789,2.791,4.186,6.654,4.186,11.592v25.596h-3.864v-6.842c-0.697,0.967-1.543,1.92-2.535,2.857
		c-0.994,0.939-2.133,1.771-3.421,2.496s-2.751,1.315-4.387,1.771C301.953,61.95,300.17,62.18,298.237,62.18z M298.479,58.396
		c2.093,0,4.077-0.307,5.956-0.922c1.878-0.614,3.528-1.469,4.95-2.564s2.549-2.419,3.381-3.969c0.831-1.549,1.248-3.258,1.248-5.13
		v-4.648c-1.719-0.428-3.73-0.841-6.037-1.243c-2.308-0.399-4.938-0.601-7.889-0.601c-4.347,0-7.687,0.869-10.021,2.606
		c-2.334,1.736-3.501,4.047-3.501,6.932v0.16c0,1.496,0.321,2.82,0.966,3.968c0.644,1.149,1.516,2.124,2.616,2.925
		c1.099,0.803,2.374,1.417,3.823,1.845C295.421,58.182,296.922,58.396,298.479,58.396z"/>
	<path d="M339.933,62.019c-3.006,0-6.011-0.562-9.016-1.686c-3.006-1.124-5.608-2.575-7.808-4.352l2.334-3.14
		c2.254,1.719,4.614,3.047,7.084,3.984c2.467,0.939,5.017,1.409,7.646,1.409c2.789,0,5.138-0.696,7.043-2.088
		c1.904-1.393,2.857-3.294,2.857-5.704v-0.16c0-1.178-0.295-2.195-0.885-3.053c-0.592-0.857-1.396-1.606-2.415-2.249
		c-1.021-0.643-2.174-1.179-3.461-1.606c-1.288-0.428-2.657-0.855-4.105-1.285c-1.664-0.481-3.341-0.991-5.031-1.527
		c-1.69-0.535-3.207-1.217-4.548-2.047c-1.342-0.83-2.429-1.86-3.26-3.093c-0.833-1.231-1.248-2.759-1.248-4.579v-0.161
		c0-1.66,0.335-3.172,1.007-4.538c0.67-1.365,1.596-2.557,2.776-3.574c1.18-1.018,2.603-1.807,4.267-2.369
		c1.663-0.562,3.487-0.844,5.474-0.844c2.468,0,5.003,0.41,7.606,1.233c2.603,0.822,4.923,1.94,6.963,3.354l-2.093,3.3
		c-1.879-1.233-3.904-2.226-6.077-2.978c-2.174-0.752-4.36-1.127-6.561-1.127c-2.845,0-5.111,0.683-6.802,2.049
		c-1.69,1.365-2.535,3.064-2.535,5.1v0.16c0,1.125,0.321,2.102,0.966,2.932c0.644,0.83,1.489,1.541,2.535,2.13
		c1.047,0.589,2.267,1.11,3.663,1.565c1.395,0.456,2.816,0.898,4.266,1.326c1.663,0.482,3.3,1.005,4.91,1.566
		c1.609,0.562,3.059,1.286,4.347,2.169c1.288,0.884,2.32,1.942,3.099,3.173c0.777,1.231,1.167,2.758,1.167,4.578v0.161
		c0,1.821-0.361,3.468-1.086,4.94s-1.73,2.732-3.019,3.775c-1.288,1.044-2.791,1.848-4.508,2.41
		C343.769,61.736,341.917,62.019,339.933,62.019z"/>
	<path d="M361.344,2.453h3.943v25.355c1.396-2.414,3.272-4.453,5.635-6.117c2.36-1.663,5.42-2.496,9.177-2.496
		c2.575,0,4.882,0.417,6.922,1.248c2.039,0.833,3.77,2,5.192,3.502c1.421,1.502,2.495,3.287,3.22,5.353
		c0.724,2.066,1.086,4.334,1.086,6.802v25.113h-3.944V36.824c0-4.238-1.127-7.633-3.38-10.183c-2.254-2.548-5.474-3.823-9.659-3.823
		c-2.04,0-3.918,0.361-5.635,1.086c-1.718,0.725-3.22,1.73-4.508,3.02c-1.288,1.287-2.294,2.83-3.019,4.628
		s-1.087,3.771-1.087,5.916v23.745h-3.943V2.453z"/>
</g>
<g>
	<path d="M235.225,78.232h5.952c0.824,0,1.556,0.114,2.194,0.342c0.638,0.228,1.156,0.541,1.555,0.94
		c0.618,0.62,0.927,1.379,0.927,2.274v0.041c0,0.496-0.072,0.932-0.216,1.303c-0.145,0.373-0.333,0.697-0.566,0.973
		s-0.498,0.506-0.793,0.692s-0.586,0.341-0.875,0.465c0.426,0.11,0.838,0.258,1.236,0.443s0.745,0.419,1.04,0.7
		c0.296,0.281,0.532,0.611,0.711,0.988c0.179,0.379,0.268,0.814,0.268,1.309v0.041c0,0.604-0.123,1.15-0.37,1.639
		c-0.248,0.486-0.598,0.898-1.051,1.235s-0.996,0.598-1.628,0.783c-0.632,0.185-1.339,0.278-2.121,0.278h-6.263V78.232z
		 M241.064,84.92c0.537,0,1.032-0.066,1.486-0.197c0.454-0.133,0.846-0.322,1.177-0.572c0.33-0.25,0.588-0.562,0.773-0.936
		s0.278-0.804,0.278-1.289v-0.041c0-0.804-0.31-1.451-0.929-1.943s-1.514-0.738-2.683-0.738h-4.87v5.717H241.064z M241.539,91.709
		c1.238,0,2.223-0.266,2.951-0.797c0.729-0.531,1.095-1.254,1.095-2.164v-0.042c0-0.897-0.376-1.591-1.125-2.081
		c-0.75-0.49-1.841-0.735-3.271-0.735h-4.891v5.819H241.539z"/>
	<path d="M253.468,86.963l-6.191-8.73h1.342l5.407,7.76l5.428-7.76h1.279l-6.191,8.709v5.738h-1.073V86.963z"/>
	<path d="M271.979,78.232h1.073V92.68h-1.073V78.232z"/>
	<path d="M276.127,78.232h1.011l9.969,12.568V78.232h1.031V92.68h-0.805l-10.175-12.837V92.68h-1.031V78.232z"/>
	<path d="M291.068,78.232h10.174v0.971h-9.101v5.964h8.172v0.97h-8.172v6.543h-1.073V78.232z"/>
	<path d="M309.848,92.927c-1.101,0-2.095-0.203-2.981-0.608c-0.888-0.406-1.648-0.949-2.281-1.631
		c-0.633-0.681-1.121-1.469-1.465-2.363c-0.344-0.894-0.516-1.836-0.516-2.826v-0.042c0-0.991,0.175-1.937,0.526-2.838
		c0.351-0.901,0.842-1.695,1.476-2.384c0.632-0.688,1.396-1.234,2.29-1.641c0.895-0.405,1.892-0.608,2.993-0.608
		c1.086,0,2.077,0.203,2.972,0.608c0.894,0.406,1.657,0.949,2.29,1.631c0.633,0.681,1.122,1.469,1.466,2.363
		s0.516,1.836,0.516,2.826c0.014,0.015,0.014,0.028,0,0.042c0,0.991-0.175,1.937-0.526,2.838c-0.351,0.901-0.843,1.696-1.476,2.384
		s-1.399,1.234-2.301,1.641C311.929,92.724,310.935,92.927,309.848,92.927z M309.89,91.957c0.894,0,1.716-0.168,2.466-0.506
		c0.75-0.337,1.396-0.798,1.939-1.383c0.544-0.584,0.967-1.27,1.27-2.053c0.303-0.785,0.454-1.624,0.454-2.518v-0.042
		c0-0.894-0.154-1.737-0.464-2.528s-0.736-1.479-1.28-2.063c-0.543-0.585-1.193-1.049-1.95-1.394
		c-0.757-0.344-1.582-0.516-2.477-0.516s-1.716,0.169-2.466,0.506c-0.75,0.338-1.396,0.798-1.94,1.383
		c-0.543,0.585-0.966,1.27-1.269,2.053c-0.303,0.785-0.454,1.624-0.454,2.518v0.042c0,0.895,0.154,1.737,0.464,2.528
		s0.736,1.479,1.28,2.063c0.543,0.585,1.193,1.05,1.95,1.394C308.169,91.785,308.995,91.957,309.89,91.957z"/>
	<path d="M324.314,92.886c-1.155,0-2.197-0.192-3.126-0.578c-0.929-0.385-1.827-0.963-2.693-1.733l0.701-0.805
		c0.399,0.371,0.795,0.691,1.187,0.959c0.393,0.269,0.795,0.488,1.208,0.66c0.412,0.173,0.846,0.304,1.3,0.393
		c0.454,0.09,0.949,0.135,1.486,0.135c0.536,0,1.031-0.072,1.485-0.217s0.839-0.344,1.156-0.599
		c0.316-0.255,0.563-0.558,0.742-0.908s0.269-0.732,0.269-1.146v-0.041c0-0.385-0.059-0.729-0.175-1.032
		c-0.117-0.302-0.331-0.577-0.641-0.825s-0.726-0.471-1.248-0.671c-0.523-0.199-1.197-0.382-2.022-0.547
		c-0.867-0.179-1.609-0.389-2.229-0.63c-0.619-0.24-1.125-0.521-1.518-0.846c-0.392-0.323-0.678-0.698-0.856-1.125
		c-0.179-0.426-0.268-0.914-0.268-1.465v-0.041c0-0.537,0.116-1.035,0.351-1.496c0.233-0.461,0.557-0.863,0.97-1.208
		c0.413-0.344,0.901-0.612,1.465-0.805c0.564-0.192,1.184-0.289,1.857-0.289c1.046,0,1.951,0.145,2.714,0.434
		c0.764,0.289,1.51,0.729,2.239,1.321l-0.681,0.846c-0.688-0.592-1.38-1.012-2.074-1.259c-0.694-0.248-1.441-0.372-2.239-0.372
		c-0.536,0-1.021,0.072-1.455,0.217c-0.433,0.145-0.805,0.341-1.114,0.588c-0.31,0.248-0.547,0.537-0.712,0.867
		s-0.248,0.682-0.248,1.053v0.041c0,0.386,0.059,0.732,0.176,1.043c0.117,0.309,0.33,0.592,0.64,0.846s0.739,0.484,1.29,0.691
		c0.55,0.206,1.252,0.398,2.105,0.578c1.678,0.344,2.889,0.828,3.632,1.455c0.743,0.625,1.114,1.469,1.114,2.527v0.041
		c0,0.578-0.12,1.111-0.361,1.6c-0.24,0.488-0.57,0.905-0.99,1.249s-0.922,0.612-1.507,0.805S325.017,92.886,324.314,92.886z"/>
	<path d="M337.873,92.927c-1.101,0-2.095-0.203-2.981-0.608c-0.888-0.406-1.648-0.949-2.281-1.631
		c-0.633-0.681-1.121-1.469-1.465-2.363c-0.344-0.894-0.516-1.836-0.516-2.826v-0.042c0-0.991,0.175-1.937,0.526-2.838
		c0.351-0.901,0.842-1.695,1.476-2.384c0.632-0.688,1.396-1.234,2.29-1.641c0.895-0.405,1.892-0.608,2.993-0.608
		c1.086,0,2.077,0.203,2.972,0.608c0.894,0.406,1.657,0.949,2.29,1.631c0.633,0.681,1.122,1.469,1.466,2.363
		s0.516,1.836,0.516,2.826c0.014,0.015,0.014,0.028,0,0.042c0,0.991-0.175,1.937-0.526,2.838c-0.351,0.901-0.843,1.696-1.476,2.384
		s-1.399,1.234-2.301,1.641C339.954,92.724,338.96,92.927,337.873,92.927z M337.915,91.957c0.894,0,1.716-0.168,2.466-0.506
		c0.75-0.337,1.396-0.798,1.939-1.383c0.544-0.584,0.967-1.27,1.27-2.053c0.303-0.785,0.454-1.624,0.454-2.518v-0.042
		c0-0.894-0.154-1.737-0.464-2.528s-0.736-1.479-1.28-2.063c-0.543-0.585-1.193-1.049-1.95-1.394
		c-0.757-0.344-1.582-0.516-2.477-0.516s-1.716,0.169-2.466,0.506c-0.75,0.338-1.396,0.798-1.94,1.383
		c-0.543,0.585-0.966,1.27-1.269,2.053c-0.303,0.785-0.454,1.624-0.454,2.518v0.042c0,0.895,0.154,1.737,0.464,2.528
		s0.736,1.479,1.28,2.063c0.543,0.585,1.193,1.05,1.95,1.394C336.194,91.785,337.021,91.957,337.915,91.957z"/>
	<path d="M347.449,78.232h1.073v13.477h8.481v0.971h-9.555V78.232z"/>
	<path d="M363.835,78.232h1.073V92.68h-1.073V78.232z"/>
	<path d="M367.983,78.232h1.011l9.969,12.568V78.232h1.031V92.68h-0.805l-10.175-12.837V92.68h-1.031V78.232z"/>
	<path d="M389.467,92.927c-1.032,0-1.988-0.192-2.869-0.577c-0.88-0.386-1.641-0.912-2.28-1.58c-0.64-0.666-1.139-1.454-1.496-2.362
		s-0.536-1.878-0.536-2.909v-0.042c0-1.019,0.182-1.981,0.547-2.89c0.364-0.908,0.866-1.702,1.506-2.383
		c0.641-0.682,1.4-1.219,2.281-1.61c0.88-0.392,1.843-0.588,2.889-0.588c0.646,0,1.231,0.056,1.754,0.165
		c0.523,0.11,1.008,0.268,1.455,0.475s0.867,0.451,1.259,0.732c0.393,0.282,0.774,0.596,1.146,0.939l-0.764,0.784
		c-0.316-0.303-0.646-0.585-0.99-0.847c-0.344-0.261-0.712-0.484-1.104-0.67c-0.392-0.186-0.818-0.334-1.279-0.444
		s-0.959-0.165-1.496-0.165c-0.867,0-1.672,0.165-2.414,0.496c-0.743,0.33-1.387,0.787-1.93,1.371
		c-0.544,0.586-0.971,1.27-1.28,2.055c-0.31,0.783-0.464,1.63-0.464,2.537v0.042c0,0.908,0.158,1.758,0.475,2.549
		s0.746,1.479,1.29,2.063c0.543,0.585,1.187,1.046,1.93,1.383c0.742,0.338,1.548,0.506,2.414,0.506c1.046,0,1.954-0.193,2.725-0.578
		s1.52-0.941,2.249-1.672l0.723,0.702c-0.386,0.372-0.781,0.712-1.187,1.021c-0.406,0.31-0.84,0.575-1.301,0.794
		c-0.461,0.221-0.959,0.393-1.496,0.517C390.685,92.865,390.1,92.927,389.467,92.927z"/>
</g>
</svg>
