<?xml version="1.0" encoding="utf-8"?>
<!-- Generator: Adobe Illustrator 16.0.0, SVG Export Plug-In . SVG Version: 6.00 Build 0)  -->
<!DOCTYPE svg PUBLIC "-//W3C//DTD SVG 1.1//EN" "http://www.w3.org/Graphics/SVG/1.1/DTD/svg11.dtd">
<svg version="1.1" id="Layer_1" xmlns="http://www.w3.org/2000/svg" xmlns:xlink="http://www.w3.org/1999/xlink" x="0px" y="0px"
	 width="400.141px" height="310.03px" viewBox="0 0 400.141 310.03" enable-background="new 0 0 400.141 310.03"
	 xml:space="preserve">
<path fill="#212121" d="M381.573,192.979c-11.457-14.833-44.404-9.775-54.059,5.053c-6.338,9.733-6.406,26.359,2.526,34.857
	c3.169,3.018,8.98,1.623,10.103,7.578c2.58,13.664-20.613,5.136-29.304,2.532c-9.158-2.755-18.13-5.989-23.745-8.088
	c-38.73-14.475-76.264-28.473-112.66-46.479c-2.96-1.459-20.434-7.894-16.674-15.158c1.359-2.619,11.509-3.131,15.662-4.035
	c5.202-1.137,13.871-2.145,14.65-5.055c0.818-3.022-5.022-7.991-7.575-8.593c-4.262-0.997-11.402,0.509-15.158,0.509
	c-26.821,0-48.499-3.24-67.192-11.118c-7.062-2.978-17.346-6.213-19.193-12.123c-4.202-13.41,18.359-21.79,27.784-25.764
	c2.8-1.186,10.465-5.286,13.134-4.55c3.803,1.051,5.652,10.65,7.074,13.643c2.279,4.791,4.641,9.553,7.581,13.133
	c13.149,16.048,45.761,20.099,63.145,3.034c7.937-7.789,13.485-19.593,17.179-30.822c1.055-3.193,2.549-11.11,4.044-12.121
	c3.759-2.536,18.089,0.28,23.241,1.011c8.025,1.144,15.264,3.197,20.717,4.548c15.229,3.78,24.893,5.337,34.349,16.673
	c-15.444,14.118-30.443,18.664-50.013,24.25c-6.729,1.918-17.518,4.921-28.802,8.082c-4.88,1.366-26.515,5.952-27.784,9.601
	c-1.562,4.479,3.077,11.497,7.578,12.625c7.187,1.817,18.981-2.248,26.776-4.038c9.372-2.157,18.058-4.696,24.755-6.571
	c16.813-4.699,32.549-8.91,45.473-16.667c8.849-5.319,18.523-17.429,27.784-18.693c11.099-1.52,19.257,5.506,31.32,5.054
	c6.483-0.248,15.376-3.349,16.168-10.613c0.847-7.8-7.045-15.303-12.124-18.185c-11.67-6.63-30.756-7.77-44.963-11.62
	c-31.932-8.658-61.636-13.771-98.52-15.666c-17.393-0.887-37.952-2.014-54.562-0.502c-28.207,2.556-49.736,13.456-70.728,23.238
	c-7.021,3.271-15.945,8.579-23.745,8.087c-6.957-0.445-17.477-9.384-17.176-16.673c0.227-5.522,6.732-9.852,11.108-13.139
	c24.649-18.504,52.857-28.285,91.952-30.816c14.821-0.962,30.623,1.078,44.966,3.033c51.481,7.016,97.925,16.438,146.001,25.768
	c4.736,0.913,17.793,5.093,20.721,3.027c2.514-1.782,1.949-9.715,1.006-13.134c-3.887-14.118-14.746-12.709-30.821-15.16
	c-25.633-3.913-52.597-8.321-76.285-12.125c-33.771-5.418-71.219-11.842-108.619-10.102c-29.663,1.377-54.909,6.043-76.791,18.188
	c-10.048,5.574-20.159,11.866-28.797,18.69c-7.635,6.035-18.333,14.901-23.744,23.75c-2.103,3.433-7.826,16.302-4.042,20.709
	c4.357,5.075,17.691-2.682,22.228-1.515c2.758,0.705,7.239,9.122,11.118,11.623c6.503,4.194,14.785,3.732,15.152,12.625
	c0.656,15.926-23.837,6.344-34.354,10.61c-6.59,2.678-13.631,18.71-2.527,22.737c6.801,2.462,17.483-4.118,27.787-5.056
	c15.653-1.417,26.807,1.957,39.408,6.566c6.49,2.377,21.226,7.984,22.734,12.633c1.23,3.794,0.072,10.271,0.507,15.663
	c0.378,4.749,0.928,9.956,1.513,14.647c0.879,7.043,1.681,23.358,7.579,25.265c4.314,1.392,10.224-1.645,11.616-4.044
	c3.402-5.837-1.044-15.146-2.522-20.209c-1.969-6.73-4.837-12.176-4.04-20.714c0.506-5.421,4.865-13.11,8.588-12.126
	c4.369,1.159,6.172,13.872,6.569,19.706c1.251,18.33-3.696,32.848-1.015,51.032c0.932,6.268,5.484,16.371,12.635,12.117
	c5.118-3.046,2.042-17.622,1.516-24.248c-0.529-6.625-2.937-22.917,0.502-25.26c1.791-1.219,5.493,0.038,11.113,3.033
	c10.949,5.82,20.121,10.117,30.312,15.157c28.999,14.338,55.205,23.177,86.9,34.352c15.406,5.43,32.465,11.325,51.529,9.598
	c15.316-1.389,30.174-9.305,37.89-18.69C387.331,236.234,391.744,206.147,381.573,192.979z M137.053,97.494
	c2.61-6.252,13.325-10.788,24.248-12.121c16.077-1.978,39.856,4.498,39.407,19.196c-0.297,9.601-14.629,21.922-23.24,25.26
	c-13.318,5.167-26.133-0.298-33.344-9.095C139.517,115.128,133.968,104.876,137.053,97.494z M364.903,216.724
	c-0.912,5.687-8.648,11.719-8.593,15.659c0.017,1.136,1.645,2.551,1.517,3.538c-0.32,2.471-3.768,6.939-6.568,7.078
	c-2.33,0.104-4.448-1.207-4.547-3.033c-0.215-3.972,7.307-3.583,8.587-6.066c3.493-6.75-2.845-11.176-10.608-11.613
	c-2.017-6.108-0.523-11.515,2.021-13.646C353.589,202.889,366.484,206.82,364.903,216.724z"/>
</svg>
